<?xml version="1.0" encoding="utf-8"?>
<!-- Generator: Adobe Illustrator 28.0.0, SVG Export Plug-In . SVG Version: 6.00 Build 0)  -->
<svg version="1.1" id="图层_3" xmlns="http://www.w3.org/2000/svg" xmlns:xlink="http://www.w3.org/1999/xlink" x="0px" y="0px"
	 viewBox="0 0 595.3 841.9" style="enable-background:new 0 0 595.3 841.9;" xml:space="preserve">
<path d="M-249.8,143.9c13.5,0.4,43.9,0.8,45.6,1.1c65.6,0,131.2,0,196.8,0c16-7.7,53.6-24,56.4-24c32,0.1,63.9,0.3,95.9,0.4
	c4.8,0,21.9,2,23.9-7.8c8.4-0.6,16.9-1.1,25.5-1.8c25.9-2.1,51.5-6,76.2-14.4c29-9.9,53.9-26.6,76-47.4c12.1-11.4,23.2-23.8,35-35.6
	c5.7-5.7,5.4-13,0.4-18.5c-16-17.6-32.1-35.1-50.5-50.3c-27.1-22.4-57.8-37.4-92.4-43.4c-21.1-3.7-42.5-5.6-63.7-8.1
	c-3.7-0.4,0.8-9.7-27.2-9.9c-10.5-0.1-88.8,0.3-99.3-0.4c-4.6-0.3-39.6-17-52.6-23.3c-2.6-1.2-58.8-2.6-84-2.8
	c-45.9-0.3-91.9,0-137.8-1.1c-24.1-0.6-47.4,2.1-70.3,8.8c-10.6,3.1-21.4,4.3-32.4,3.1c-0.3-0.4-0.6-0.7-0.6-0.9
	c-1.3-11.6-1.3-11.6-12.9-11.6c-4,0-8,0.4-12-0.1c-5.6-0.7-6.9,2.4-7.2,6.9c-0.7,14.1-2,28.2-2.2,42.4
	c-0.8,56.5-1.5,112.9-1.7,169.4c-0.1,20,1.1,39.9,1.9,59.9c0.4,8.8,0.6,8.8,9.3,8.8c5.5,0,11-0.3,16.5,0.1c4.2,0.3,6.1-9.6,6.4-12.9
	c6.9,0.3,13.9-0.2,20.6,1.2L-249.8,143.9z"/>
<path d="M-232.4,266.6"/>
</svg>
